<?xml version="1.0" encoding="utf-8"?>
<!-- Svg Vector Icons : http://www.onlinewebfonts.com/icon -->
<!DOCTYPE svg PUBLIC "-//W3C//DTD SVG 1.1//EN" "http://www.w3.org/Graphics/SVG/1.1/DTD/svg11.dtd">
<svg version="1.1" xmlns="http://www.w3.org/2000/svg" xmlns:xlink="http://www.w3.org/1999/xlink" x="0px" y="0px" viewBox="0 0 1000 1000" enable-background="new 0 0 1000 1000" xml:space="preserve">
<metadata> Svg Vector Icons : http://www.onlinewebfonts.com/icon </metadata>
<g><path d="M717.4,821.4c0,55.1,44.8,99.9,99.9,99.9c55.1,0,99.9-44.8,99.9-99.9c0-55.1-44.8-99.9-99.9-99.9H406.7l-28.3-124.1h418.2c21.6,0,42.3-13.2,50.5-32l139.4-319.4c5.6-12.7,4.6-26.9-2.7-37.8c-7-10.6-18.4-16.7-31.5-16.7H287.5l-12.3-54.9c-7.2-32.4-39.3-57.8-73.1-57.8H33.9C20.7,78.7,10,89.4,10,102.6c0,13.2,10.7,23.9,23.9,23.9H202c11.5,0,24.2,9.7,26.5,20.4l129.6,577.4l-7.6,3c-37.7,15-63.1,52.8-63.1,94c0,55.1,44.8,99.9,99.9,99.9c55.1,0,99.9-44.8,99.9-99.9c0-12.7-2.4-25.1-7-36.9l-5.2-13.1h254.7l-5.2,13.1C719.8,796.3,717.4,808.7,717.4,821.4z M800.9,771.9l1.7-0.5c7.1-1.9,14.2-2.7,21.3-1.6c25.9,3.2,45.5,25.4,45.5,51.6c0,28.8-23.4,52.2-52.2,52.2c-28.7,0-52.1-23.4-52.1-52.2C765.1,798.9,779.5,779,800.9,771.9z M298.2,239.1h639.1L801.8,549.6H367.7L298.2,239.1z M387.3,873.5c-28.7,0-52.1-23.4-52.1-52.2c0-26,19.4-48.1,45.2-51.6c1.8-0.1,3-0.2,4.3-0.2c8.9,0,17.8,2,18.2,2.1c22.3,7.3,36.7,27.2,36.7,49.7C439.5,850.1,416.1,873.5,387.3,873.5z"/></g>
</svg>